<?xml version="1.0" encoding="utf-8"?>
<!-- Generator: Adobe Illustrator 16.0.0, SVG Export Plug-In . SVG Version: 6.00 Build 0)  -->
<!DOCTYPE svg PUBLIC "-//W3C//DTD SVG 1.1//EN" "http://www.w3.org/Graphics/SVG/1.1/DTD/svg11.dtd">
<svg version="1.1" xmlns="http://www.w3.org/2000/svg" xmlns:xlink="http://www.w3.org/1999/xlink" x="0px" y="0px" width="200px"
	 height="200px" viewBox="0 0 200 200" enable-background="new 0 0 200 200" xml:space="preserve">
<g id="Cloud">
	<path fill="#FFFFFF" stroke="#FFFFFF" stroke-miterlimit="10" d="M154.308,78.819c-2.039,0-4.02,0.207-5.969,0.521
		c-2.715-11.553-13.059-20.166-25.441-20.166c-4.258,0-8.266,1.039-11.82,2.844c-8.129-10.807-21.019-17.826-35.583-17.826
		c-23.031,0-41.975,17.479-44.303,39.895c-13.334,5.373-22.732,18.23-22.732,33.254c0,19.852,16.402,35.953,36.635,35.953
		c0.545,0,1.076-0.063,1.615-0.086v0.086h107.599c20.563,0,37.234-16.672,37.234-37.238
		C191.542,95.491,174.87,78.819,154.308,78.819z"/>
</g>
<g id="Map" display="none">
	<polyline display="inline" fill="#FFFFFF" points="81.238,131.598 43.547,151.699 43.547,83.852 81.238,64.893 81.238,131.598 
		81.238,64.893 	"/>
	<path display="inline" fill="#FFFFFF" d="M121.357,77.33"/>
	<polyline display="inline" fill="#FFFFFF" points="121.357,144.039 159.045,125.438 159.049,57.59 121.357,77.33 121.357,145.539 
		121.357,144.039 	"/>
	<path display="inline" fill="#FFFFFF" d="M121.357,145.539"/>
	<polygon display="inline" fill="#FFFFFF" points="119.857,143.816 82.607,131.566 82.607,64.893 119.857,77.33 	"/>
</g>
<g id="Theme" display="none">
	<path display="inline" fill="#FDFDFE" d="M100,40.25c-32.998,0-59.75,26.752-59.75,59.75c0,33,26.752,59.75,59.75,59.75
		c33,0,59.75-26.75,59.75-59.75C159.75,67.002,133,40.25,100,40.25z M100,153V47c29.27,0,53,23.729,53,53
		C153,129.27,129.27,153,100,153z"/>
</g>
</svg>
