<?xml version="1.0" encoding="utf-8"?>
<!-- Generator: Adobe Illustrator 16.0.0, SVG Export Plug-In . SVG Version: 6.00 Build 0)  -->
<!DOCTYPE svg PUBLIC "-//W3C//DTD SVG 1.1//EN" "http://www.w3.org/Graphics/SVG/1.1/DTD/svg11.dtd">
<svg version="1.1" id="Layer_1" xmlns="http://www.w3.org/2000/svg" xmlns:xlink="http://www.w3.org/1999/xlink" x="0px" y="0px"
	 width="200px" height="200px" viewBox="0 0 200 200" enable-background="new 0 0 200 200" xml:space="preserve">
<g id="Cloud" display="none">
	<path display="inline" fill="#FFFFFF" stroke="#FFFFFF" stroke-miterlimit="10" d="M154.309,78.819
		c-2.039,0-4.021,0.207-5.97,0.521c-2.715-11.553-13.06-20.166-25.44-20.166c-4.258,0-8.267,1.039-11.82,2.844
		c-8.129-10.807-21.019-17.826-35.583-17.826c-23.031,0-41.975,17.479-44.303,39.895C17.858,89.46,8.46,102.316,8.46,117.341
		c0,19.853,16.402,35.953,36.635,35.953c0.545,0,1.076-0.063,1.615-0.086v0.086h107.599c20.563,0,37.234-16.672,37.234-37.237
		C191.542,95.491,174.87,78.819,154.309,78.819z"/>
</g>
<g id="Map">
	<polyline fill="#FFFFFF" points="73.57,141.9 21.471,169.688 21.471,75.903 73.57,49.697 73.57,141.9 73.57,49.697 	"/>
	<path fill="#FFFFFF" d="M129.025,66.889"/>
	<path fill="#FFFFFF" d="M129.025,159.1l52.094-25.714c0,0,0-93.783,0.006-93.783l-52.1,27.286v94.283V159.1"/>
	<path fill="#FFFFFF" d="M129.025,161.172"/>
	<polygon fill="#FFFFFF" points="126.952,158.79 75.463,141.857 75.463,49.697 126.952,66.889 	"/>
</g>
<g id="Theme" display="none">
	<path display="inline" fill="#FDFDFE" d="M100,40.25c-32.998,0-59.75,26.752-59.75,59.75c0,33,26.752,59.75,59.75,59.75
		c33,0,59.75-26.75,59.75-59.75C159.75,67.002,133,40.25,100,40.25z M100,153V47c29.27,0,53,23.729,53,53
		C153,129.27,129.27,153,100,153z"/>
</g>
<g id="Sunny" display="none">
	<circle display="inline" fill="#FFFFFF" cx="100" cy="100" r="48"/>
	<polygon display="inline" fill="#FFFFFF" points="167.563,111.973 179.533,100 165.146,85.614 172.139,66.511 156.238,60.693 
		156.238,43.762 135.896,43.762 127.329,25.309 111.973,32.438 100,20.466 85.615,34.852 66.51,27.861 60.692,43.762 43.762,43.762 
		43.762,64.104 25.309,72.67 32.438,88.028 20.466,100 34.852,114.385 27.861,133.49 43.762,139.309 43.762,156.239 64.104,156.239 
		72.67,174.691 88.029,167.563 100,179.533 114.385,165.148 133.488,172.139 139.307,156.239 156.238,156.239 156.238,135.896 
		174.691,127.331 	"/>
</g>
</svg>
