<?xml version="1.0" encoding="utf-8"?>
<!-- Generator: Adobe Illustrator 16.0.0, SVG Export Plug-In . SVG Version: 6.00 Build 0)  -->
<!DOCTYPE svg PUBLIC "-//W3C//DTD SVG 1.1//EN" "http://www.w3.org/Graphics/SVG/1.1/DTD/svg11.dtd">
<svg version="1.1" xmlns="http://www.w3.org/2000/svg" xmlns:xlink="http://www.w3.org/1999/xlink" x="0px" y="0px" width="200px"
	 height="200px" viewBox="0 0 200 200" enable-background="new 0 0 200 200" xml:space="preserve">
<g id="Cloud" display="none">
	<path display="inline" fill="#FFFFFF" stroke="#FFFFFF" stroke-miterlimit="10" d="M154.308,78.819
		c-2.039,0-4.02,0.207-5.969,0.521c-2.715-11.553-13.059-20.166-25.441-20.166c-4.258,0-8.266,1.039-11.82,2.844
		c-8.129-10.807-21.019-17.826-35.583-17.826c-23.031,0-41.975,17.479-44.303,39.895c-13.334,5.373-22.732,18.23-22.732,33.254
		c0,19.852,16.402,35.953,36.635,35.953c0.545,0,1.076-0.063,1.615-0.086v0.086h107.599c20.563,0,37.234-16.672,37.234-37.238
		C191.542,95.491,174.87,78.819,154.308,78.819z"/>
</g>
<g id="Map" display="none">
	<polyline display="inline" fill="#FFFFFF" points="73.57,141.901 21.471,169.687 21.471,75.903 73.57,49.697 73.57,141.901 
		73.57,49.697 	"/>
	<path display="inline" fill="#FFFFFF" d="M129.025,66.889"/>
	<path display="inline" fill="#FFFFFF" d="M129.025,159.099l52.094-25.713c0,0,0-93.783,0.006-93.783l-52.1,27.286v94.283V159.099"
		/>
	<path display="inline" fill="#FFFFFF" d="M129.025,161.172"/>
	<polygon display="inline" fill="#FFFFFF" points="126.952,158.79 75.463,141.857 75.463,49.697 126.952,66.889 	"/>
</g>
<g id="Theme" display="none">
	<path display="inline" fill="#FDFDFE" d="M100,40.25c-32.998,0-59.75,26.752-59.75,59.75c0,33,26.752,59.75,59.75,59.75
		c33,0,59.75-26.75,59.75-59.75C159.75,67.002,133,40.25,100,40.25z M100,153V47c29.27,0,53,23.729,53,53
		C153,129.27,129.27,153,100,153z"/>
</g>
<g id="Sunny">
	<circle fill="#FFFFFF" cx="100" cy="100" r="48"/>
	<polygon fill="#FFFFFF" points="167.562,111.972 179.533,100 165.147,85.614 172.138,66.511 156.239,60.693 156.239,43.762 
		135.896,43.762 127.329,25.309 111.972,32.438 100,20.466 85.615,34.852 66.51,27.861 60.692,43.762 43.762,43.762 43.762,64.104 
		25.309,72.67 32.438,88.028 20.466,100 34.852,114.385 27.861,133.49 43.762,139.309 43.762,156.239 64.104,156.239 72.67,174.691 
		88.029,167.562 100,179.533 114.385,165.148 133.488,172.138 139.306,156.239 156.239,156.239 156.239,135.897 174.692,127.331 	
		"/>
</g>
</svg>
