<?xml version="1.0" encoding="utf-8"?>
<!-- Generator: Adobe Illustrator 16.0.0, SVG Export Plug-In . SVG Version: 6.00 Build 0)  -->
<!DOCTYPE svg PUBLIC "-//W3C//DTD SVG 1.1//EN" "http://www.w3.org/Graphics/SVG/1.1/DTD/svg11.dtd">
<svg version="1.1" xmlns="http://www.w3.org/2000/svg" xmlns:xlink="http://www.w3.org/1999/xlink" x="0px" y="0px" width="200px"
	 height="200px" viewBox="0 0 200 200" enable-background="new 0 0 200 200" xml:space="preserve">
<g id="NavBarIcons" display="none">
	<g id="Cloud">
		<path display="inline" fill="#FFFFFF" stroke="#FFFFFF" stroke-miterlimit="10" d="M154.309,78.819
			c-2.039,0-4.021,0.207-5.97,0.521c-2.715-11.553-13.06-20.166-25.44-20.166c-4.258,0-8.267,1.039-11.819,2.844
			C102.95,51.211,90.06,44.192,75.496,44.192c-23.031,0-41.975,17.479-44.303,39.895C17.858,89.46,8.46,102.316,8.46,117.341
			c0,19.853,16.402,35.953,36.635,35.953c0.545,0,1.076-0.063,1.615-0.086v0.086h107.599c20.563,0,37.234-16.672,37.234-37.237
			C191.542,95.491,174.87,78.819,154.309,78.819z"/>
	</g>
	<g id="Map">
		<polyline display="inline" fill="#FFFFFF" points="73.57,141.9 21.471,169.688 21.471,75.903 73.57,49.697 73.57,141.9 
			73.57,49.697 		"/>
		<path display="inline" fill="#FFFFFF" d="M129.025,66.889"/>
		<path display="inline" fill="#FFFFFF" d="M129.025,159.1l52.094-25.714c0,0,0-93.783,0.006-93.783l-52.1,27.286v94.283V159.1"/>
		<path display="inline" fill="#FFFFFF" d="M129.025,161.172"/>
		<polygon display="inline" fill="#FFFFFF" points="126.952,158.79 75.463,141.857 75.463,49.697 126.952,66.889 		"/>
	</g>
	<g id="Theme">
		<path display="inline" fill="#FDFDFE" d="M100,40.25c-32.998,0-59.75,26.752-59.75,59.75c0,33,26.752,59.75,59.75,59.75
			c33,0,59.75-26.75,59.75-59.75C159.75,67.002,133,40.25,100,40.25z M100,153V47c29.27,0,53,23.729,53,53
			C153,129.27,129.27,153,100,153z"/>
	</g>
</g>
<g id="Sunny" display="none">
	<polygon display="inline" fill="none" stroke="#FF7F11" stroke-width="10" stroke-miterlimit="10" points="110.773,11.831 
		133.131,41.917 170.214,36.452 164.75,73.535 194.835,95.893 164.75,118.25 170.214,155.334 133.131,149.869 110.773,179.955 
		88.416,149.869 51.333,155.334 56.797,118.25 26.711,95.893 56.797,73.535 51.333,36.452 88.416,41.917 	"/>
	
		<circle display="inline" fill="none" stroke="#FF7F11" stroke-width="10" stroke-miterlimit="10" cx="112.671" cy="86.415" r="37.625"/>
</g>
<g id="Night" display="none">
	<path display="inline" fill="none" stroke="#FFFB46" stroke-width="10" stroke-miterlimit="10" d="M78.348,41.625
		C54.644,50.421,37.75,73.235,37.75,100c0,34.38,27.87,62.25,62.25,62.25c26.765,0,49.579-16.894,58.375-40.598
		C115.068,119.685,80.316,84.932,78.348,41.625z"/>
	<path display="inline" fill="none" stroke="#FFFB46" stroke-miterlimit="10" d="M154.185,74.262c0,6.633,5.367,12,12,12"/>
	<path display="inline" fill="none" stroke="#FFFB46" stroke-miterlimit="10" d="M154.185,98.262c0-6.633-5.367-12-12-12"/>
	<path display="inline" fill="none" stroke="#FFFB46" stroke-miterlimit="10" d="M142.185,86.262c6.633,0,12-5.367,12-12"/>
	<path display="inline" fill="none" stroke="#FFFB46" stroke-miterlimit="10" d="M166.185,86.262c-6.633,0-12,5.367-12,12"/>
	<path display="inline" fill="none" stroke="#FFFB46" stroke-miterlimit="10" d="M139.655,62.393c0,3.28,2.654,5.935,5.935,5.935"/>
	<path display="inline" fill="none" stroke="#FFFB46" stroke-miterlimit="10" d="M139.655,74.262c0-3.28-2.654-5.935-5.935-5.935"/>
	<path display="inline" fill="none" stroke="#FFFB46" stroke-miterlimit="10" d="M133.721,68.328c3.28,0,5.935-2.654,5.935-5.935"/>
	<path display="inline" fill="none" stroke="#FFFB46" stroke-miterlimit="10" d="M145.59,68.328c-3.28,0-5.935,2.654-5.935,5.935"/>
</g>
<g id="Cloud_x2B_Sun_copy" display="none">
	<path display="inline" fill="none" stroke="#FF7F11" stroke-width="10" stroke-miterlimit="10" d="M346.583,53.359
		c-10.053-0.002-18.604,8.075-19.111,18.083"/>
	<path display="inline" fill="none" stroke="#FF7F11" stroke-width="10" stroke-miterlimit="10" d="M364.487,97.731
		c4.842-4.695,7.856-11.265,7.856-18.542c0-14.266-11.565-25.831-25.831-25.831"/>
	<polyline display="inline" fill="none" stroke="#FF7F11" stroke-width="10" stroke-miterlimit="10" points="309.526,64.168 
		305.775,38.71 331.234,42.461 346.583,21.807 361.932,42.461 387.392,38.71 383.64,64.168 404.294,79.518 380.53,97.976 	"/>
	<path display="inline" fill="none" stroke="#FF7F11" stroke-width="10" stroke-miterlimit="10" d="M305.775,120.325"/>
	<path display="inline" fill="none" stroke="#000000" stroke-width="10" stroke-miterlimit="10" d="M369.957,97.669
		c-2.2,0-4.334,0.279-6.371,0.803c-3.313-5.911-8.91-10.365-15.598-12.17c-6.916-12.653-20.346-21.237-35.781-21.237
		c-16.704,0-31.053,10.055-37.345,24.439c-2.815-0.866-5.806-1.335-8.905-1.335c-16.707,0-30.25,13.544-30.25,30.25
		c0,16.708,13.543,30.25,30.25,30.25h104c14.083,0,25.5-11.416,25.5-25.5C395.457,109.086,384.04,97.669,369.957,97.669z"/>
	<path display="inline" fill="none" stroke="#FF7F11" stroke-width="10" stroke-miterlimit="10" d="M323.865,66.762"/>
</g>
<g id="Cloud_x2B_Moon" display="none">
	<path display="inline" fill="none" stroke="#FFFB46" stroke-width="10" stroke-miterlimit="10" d="M146.881,97.976
		c16.812-2.021,30.265-10.347,35.97-25.718c-31.03-1.41-55.932-26.311-57.341-57.341c-16.984,6.302-29.089,26.812-29.089,45.989"/>
	<path display="inline" fill="none" stroke="#FFFB46" stroke-miterlimit="10" d="M179.848,38.301c0,4.753,3.846,8.598,8.598,8.598"
		/>
	<path display="inline" fill="none" stroke="#FFFB46" stroke-miterlimit="10" d="M179.848,55.498c0-4.752-3.846-8.598-8.599-8.598"
		/>
	<path display="inline" fill="none" stroke="#FFFB46" stroke-miterlimit="10" d="M171.249,46.899c4.753,0,8.599-3.845,8.599-8.598"
		/>
	<path display="inline" fill="none" stroke="#FFFB46" stroke-miterlimit="10" d="M188.445,46.899c-4.752,0-8.598,3.846-8.598,8.598"
		/>
	<path display="inline" fill="none" stroke="#FFFB46" stroke-miterlimit="10" d="M169.437,29.797c0,2.351,1.902,4.252,4.253,4.252"
		/>
	<path display="inline" fill="none" stroke="#FFFB46" stroke-miterlimit="10" d="M169.437,38.301c0-2.35-1.901-4.252-4.251-4.252"/>
	<path display="inline" fill="none" stroke="#FFFB46" stroke-miterlimit="10" d="M165.186,34.049c2.35,0,4.251-1.902,4.251-4.252"/>
	<path display="inline" fill="none" stroke="#FFFB46" stroke-miterlimit="10" d="M173.689,34.049c-2.351,0-4.253,1.902-4.253,4.252"
		/>
	<path display="inline" fill="none" stroke="#000000" stroke-width="10" stroke-miterlimit="10" d="M150.796,97.669
		c-2.2,0-4.334,0.279-6.371,0.803c-3.313-5.911-8.91-10.365-15.598-12.17c-6.916-12.653-20.346-21.237-35.781-21.237
		c-16.704,0-31.053,10.055-37.345,24.439c-2.816-0.866-5.806-1.335-8.905-1.335c-16.707,0-30.25,13.544-30.25,30.25
		c0,16.708,13.543,30.25,30.25,30.25h104c14.083,0,25.5-11.416,25.5-25.5C176.296,109.086,164.879,97.669,150.796,97.669z"/>
</g>
<g id="Cloud_1_" display="none">
	<path display="inline" fill="none" stroke="#000000" stroke-width="10" stroke-miterlimit="10" d="M154.375,95.005
		c-2.2,0-4.334,0.279-6.371,0.803c-3.313-5.911-8.91-10.365-15.598-12.17c-6.916-12.653-20.346-21.237-35.781-21.237
		c-16.704,0-31.053,10.055-37.345,24.439c-2.815-0.866-5.806-1.335-8.905-1.335c-16.707,0-30.25,13.544-30.25,30.25
		c0,16.707,13.543,30.25,30.25,30.25h104c14.083,0,25.5-11.416,25.5-25.5S168.458,95.005,154.375,95.005z"/>
</g>
<g id="Broken_Clouds" display="none">
	<path display="inline" fill="none" stroke="#000000" stroke-miterlimit="10" d="M63.264,47.567c-16.707,0-30.25,12.56-30.25,29.267
		"/>
	<path display="inline" fill="none" stroke="#000000" stroke-width="10" stroke-miterlimit="10" d="M141.042,95.005
		c-2.2,0-4.334,0.279-6.371,0.803c-3.313-5.911-8.91-10.365-15.598-12.17c-6.916-12.653-20.346-21.237-35.781-21.237
		c-16.704,0-31.053,10.055-37.345,24.439c-2.815-0.866-5.806-1.335-8.905-1.335c-16.707,0-30.25,13.544-30.25,30.25
		c0,16.707,13.543,30.25,30.25,30.25h104c14.083,0,25.5-11.416,25.5-25.5S155.125,95.005,141.042,95.005z"/>
	<path display="inline" fill="#8E8E8E" stroke="#000000" stroke-width="10" stroke-miterlimit="10" d="M167.264,57.067
		c-2.2,0-4.334,0.279-6.371,0.803c-3.313-5.911-8.91-10.365-15.598-12.17c-6.916-12.653-20.346-21.237-35.781-21.237
		c-16.704,0-31.053,10.055-37.345,24.439c-2.815-0.866-5.806-1.335-8.905-1.335c-16.707,0-30.25,12.56-30.25,29.267
		c0,1.848-1.217,6.604,0.506,7.971c0.126,0.1,0.336,0.402,0.606,0.843c0.96-0.092,1.932-0.143,2.917-0.143
		c3.1,0,6.09,0.469,8.905,1.335c6.292-14.384,20.641-24.439,37.345-24.439c15.436,0,28.865,8.584,35.781,21.237
		c6.688,1.805,12.285,6.259,15.598,12.17c2.037-0.523,4.171-0.803,6.371-0.803c9.468,0,17.725,5.164,22.123,12.826
		c0.334-0.201,0.611-0.274,0.808-0.166c2.008,1.107,5.909-0.316,7.958-0.946c10.503-3.229,20.833-12.433,20.833-24.151
		C192.764,68.483,181.347,57.067,167.264,57.067z"/>
</g>
<g id="Shower_Rain" display="none">
	<path display="inline" fill="none" stroke="#000000" stroke-miterlimit="10" d="M63.264,47.567c-16.707,0-30.25,12.56-30.25,29.267
		"/>
	<path display="inline" fill="none" stroke="#000000" stroke-width="10" stroke-miterlimit="10" d="M141.042,95.005
		c-2.2,0-4.334,0.279-6.371,0.803c-3.313-5.911-8.91-10.365-15.598-12.17c-6.916-12.653-20.346-21.237-35.781-21.237
		c-16.704,0-31.053,10.055-37.345,24.439c-2.815-0.866-5.806-1.335-8.905-1.335c-16.707,0-30.25,13.544-30.25,30.25
		c0,16.707,13.543,30.25,30.25,30.25h104c14.083,0,25.5-11.416,25.5-25.5S155.125,95.005,141.042,95.005z"/>
	<path display="inline" fill="#8E8E8E" stroke="#000000" stroke-width="10" stroke-miterlimit="10" d="M167.264,57.067
		c-2.2,0-4.334,0.279-6.371,0.803c-3.313-5.911-8.91-10.365-15.598-12.17c-6.916-12.653-20.346-21.237-35.781-21.237
		c-16.704,0-31.053,10.055-37.345,24.439c-2.815-0.866-5.806-1.335-8.905-1.335c-16.707,0-30.25,12.56-30.25,29.267
		c0,1.848-1.217,6.604,0.506,7.971c0.126,0.1,0.336,0.402,0.606,0.843c0.96-0.092,1.932-0.143,2.917-0.143
		c3.1,0,6.09,0.469,8.905,1.335c6.292-14.384,20.641-24.439,37.345-24.439c15.436,0,28.865,8.584,35.781,21.237
		c6.688,1.805,12.285,6.259,15.598,12.17c2.037-0.523,4.171-0.803,6.371-0.803c9.468,0,17.725,5.164,22.123,12.826
		c0.334-0.201,0.611-0.274,0.808-0.166c2.008,1.107,5.909-0.316,7.958-0.946c10.503-3.229,20.833-12.433,20.833-24.151
		C192.764,68.483,181.347,57.067,167.264,57.067z"/>
	<path display="inline" fill="#8E8E8E" stroke="#000000" stroke-width="10" stroke-miterlimit="10" d="M38.512,159.515
		c0.049-0.049,0.049-0.128,0-0.177l0,0c-0.048-0.049-0.127-0.049-0.177,0l-22.097,22.097c-0.049,0.049-0.049,0.128,0,0.177l0,0
		c0.048,0.049,0.127,0.049,0.177,0L38.512,159.515z"/>
	<path display="inline" fill="#8E8E8E" stroke="#000000" stroke-width="10" stroke-miterlimit="10" d="M71.568,159.515
		c0.049-0.049,0.049-0.128,0-0.177l0,0c-0.049-0.049-0.127-0.049-0.177,0l-22.097,22.097c-0.049,0.049-0.049,0.128,0,0.177l0,0
		c0.049,0.049,0.127,0.049,0.177,0L71.568,159.515z"/>
	<path display="inline" fill="#8E8E8E" stroke="#000000" stroke-width="10" stroke-miterlimit="10" d="M106.605,159.515
		c0.049-0.049,0.049-0.128,0-0.177l0,0c-0.049-0.049-0.127-0.049-0.176,0l-22.097,22.097c-0.049,0.049-0.049,0.128,0,0.177l0,0
		c0.049,0.049,0.127,0.049,0.177,0L106.605,159.515z"/>
	<path display="inline" fill="#8E8E8E" stroke="#000000" stroke-width="10" stroke-miterlimit="10" d="M140.857,159.515
		c0.049-0.049,0.049-0.128,0-0.177l0,0c-0.049-0.049-0.127-0.049-0.176,0l-22.098,22.097c-0.049,0.049-0.049,0.128,0,0.177l0,0
		c0.049,0.049,0.127,0.049,0.178,0L140.857,159.515z"/>
</g>
<g id="Cloud_x2B_Moon_x2B_Rain" display="none">
	<path display="inline" fill="none" stroke="#FFFB46" stroke-width="10" stroke-miterlimit="10" d="M146.881,97.976
		c16.812-2.021,30.265-10.347,35.97-25.718c-31.03-1.41-55.932-26.311-57.341-57.341c-16.984,6.302-29.089,26.812-29.089,45.989"/>
	<path display="inline" fill="none" stroke="#FFFB46" stroke-miterlimit="10" d="M179.848,38.301c0,4.753,3.846,8.598,8.598,8.598"
		/>
	<path display="inline" fill="none" stroke="#FFFB46" stroke-miterlimit="10" d="M179.848,55.498c0-4.752-3.846-8.598-8.599-8.598"
		/>
	<path display="inline" fill="none" stroke="#FFFB46" stroke-miterlimit="10" d="M171.249,46.899c4.753,0,8.599-3.845,8.599-8.598"
		/>
	<path display="inline" fill="none" stroke="#FFFB46" stroke-miterlimit="10" d="M188.445,46.899c-4.752,0-8.598,3.846-8.598,8.598"
		/>
	<path display="inline" fill="none" stroke="#FFFB46" stroke-miterlimit="10" d="M169.437,29.797c0,2.351,1.902,4.252,4.253,4.252"
		/>
	<path display="inline" fill="none" stroke="#FFFB46" stroke-miterlimit="10" d="M169.437,38.301c0-2.35-1.901-4.252-4.251-4.252"/>
	<path display="inline" fill="none" stroke="#FFFB46" stroke-miterlimit="10" d="M165.186,34.049c2.35,0,4.251-1.902,4.251-4.252"/>
	<path display="inline" fill="none" stroke="#FFFB46" stroke-miterlimit="10" d="M173.689,34.049c-2.351,0-4.253,1.902-4.253,4.252"
		/>
	<path display="inline" fill="none" stroke="#000000" stroke-width="10" stroke-miterlimit="10" d="M150.796,97.669
		c-2.2,0-4.334,0.279-6.371,0.803c-3.313-5.911-8.91-10.365-15.598-12.17c-6.916-12.653-20.346-21.237-35.781-21.237
		c-16.704,0-31.053,10.055-37.345,24.439c-2.816-0.866-5.806-1.335-8.905-1.335c-16.707,0-30.25,13.544-30.25,30.25
		c0,16.708,13.543,30.25,30.25,30.25h104c14.083,0,25.5-11.416,25.5-25.5C176.296,109.086,164.879,97.669,150.796,97.669z"/>
	<path display="inline" fill="#8E8E8E" stroke="#000000" stroke-width="10" stroke-miterlimit="10" d="M43.695,164.186
		c0.049-0.049,0.049-0.128,0-0.177l0,0c-0.049-0.049-0.127-0.049-0.177,0l-22.097,22.097c-0.049,0.049-0.049,0.128,0,0.177l0,0
		c0.049,0.049,0.127,0.049,0.177,0L43.695,164.186z"/>
	<path display="inline" fill="#8E8E8E" stroke="#000000" stroke-width="10" stroke-miterlimit="10" d="M76.752,164.186
		c0.049-0.049,0.049-0.128,0-0.177l0,0c-0.049-0.049-0.127-0.049-0.178,0l-22.096,22.097c-0.049,0.049-0.049,0.128,0,0.177l0,0
		c0.049,0.049,0.127,0.049,0.176,0L76.752,164.186z"/>
	<path display="inline" fill="#8E8E8E" stroke="#000000" stroke-width="10" stroke-miterlimit="10" d="M111.789,164.186
		c0.049-0.049,0.049-0.128,0-0.177l0,0c-0.049-0.049-0.127-0.049-0.176,0l-22.097,22.097c-0.049,0.049-0.049,0.128,0,0.177l0,0
		c0.049,0.049,0.127,0.049,0.177,0L111.789,164.186z"/>
	<path display="inline" fill="#8E8E8E" stroke="#000000" stroke-width="10" stroke-miterlimit="10" d="M146.041,164.186
		c0.049-0.049,0.049-0.128,0-0.177l0,0c-0.049-0.049-0.127-0.049-0.176,0l-22.098,22.097c-0.049,0.049-0.049,0.128,0,0.177l0,0
		c0.049,0.049,0.127,0.049,0.178,0L146.041,164.186z"/>
</g>
<g id="Cloud_x2B_Sun_x2B_Rain" display="none">
	<path display="inline" fill="none" stroke="#FF7F11" stroke-width="10" stroke-miterlimit="10" d="M346.583,53.359
		c-10.053-0.002-18.604,8.075-19.111,18.083"/>
	<path display="inline" fill="none" stroke="#FF7F11" stroke-width="10" stroke-miterlimit="10" d="M364.487,97.731
		c4.842-4.695,7.856-11.265,7.856-18.542c0-14.266-11.565-25.831-25.831-25.831"/>
	<polyline display="inline" fill="none" stroke="#FF7F11" stroke-width="10" stroke-miterlimit="10" points="309.526,64.168 
		305.775,38.71 331.234,42.461 346.583,21.807 361.932,42.461 387.392,38.71 383.64,64.168 404.294,79.518 380.53,97.976 	"/>
	<path display="inline" fill="none" stroke="#FF7F11" stroke-width="10" stroke-miterlimit="10" d="M305.775,120.325"/>
	<path display="inline" fill="none" stroke="#000000" stroke-width="10" stroke-miterlimit="10" d="M369.957,97.669
		c-2.2,0-4.334,0.279-6.371,0.803c-3.313-5.911-8.91-10.365-15.598-12.17c-6.916-12.653-20.346-21.237-35.781-21.237
		c-16.704,0-31.053,10.055-37.345,24.439c-2.815-0.866-5.806-1.335-8.905-1.335c-16.707,0-30.25,13.544-30.25,30.25
		c0,16.708,13.543,30.25,30.25,30.25h104c14.083,0,25.5-11.416,25.5-25.5C395.457,109.086,384.04,97.669,369.957,97.669z"/>
	<path display="inline" fill="none" stroke="#FF7F11" stroke-width="10" stroke-miterlimit="10" d="M323.865,66.762"/>
	<path display="inline" fill="#8E8E8E" stroke="#000000" stroke-width="10" stroke-miterlimit="10" d="M265.738,164.204
		c0.049-0.049,0.049-0.128,0-0.177l0,0c-0.049-0.049-0.127-0.049-0.177,0l-22.097,22.097c-0.049,0.049-0.049,0.128,0,0.177l0,0
		c0.049,0.049,0.127,0.049,0.177,0L265.738,164.204z"/>
	<path display="inline" fill="#8E8E8E" stroke="#000000" stroke-width="10" stroke-miterlimit="10" d="M298.795,164.204
		c0.049-0.049,0.049-0.128,0-0.177l0,0c-0.049-0.049-0.127-0.049-0.178,0l-22.096,22.097c-0.049,0.049-0.049,0.128,0,0.177l0,0
		c0.049,0.049,0.127,0.049,0.176,0L298.795,164.204z"/>
	<path display="inline" fill="#8E8E8E" stroke="#000000" stroke-width="10" stroke-miterlimit="10" d="M333.832,164.204
		c0.049-0.049,0.049-0.128,0-0.177l0,0c-0.049-0.049-0.127-0.049-0.176,0l-22.097,22.097c-0.049,0.049-0.049,0.128,0,0.177l0,0
		c0.049,0.049,0.127,0.049,0.177,0L333.832,164.204z"/>
	<path display="inline" fill="#8E8E8E" stroke="#000000" stroke-width="10" stroke-miterlimit="10" d="M368.084,164.204
		c0.049-0.049,0.049-0.128,0-0.177l0,0c-0.049-0.049-0.127-0.049-0.176,0l-22.098,22.097c-0.049,0.049-0.049,0.128,0,0.177l0,0
		c0.049,0.049,0.127,0.049,0.178,0L368.084,164.204z"/>
</g>
<g id="Thunderstorm">
	<path fill="none" stroke="#000000" stroke-miterlimit="10" d="M63.264,47.567c-16.707,0-30.25,12.56-30.25,29.267"/>
	<path fill="none" stroke="#000000" stroke-width="10" stroke-miterlimit="10" d="M141.042,95.005c-2.2,0-4.334,0.279-6.371,0.803
		c-3.313-5.911-8.91-10.365-15.598-12.17c-6.916-12.653-20.346-21.237-35.781-21.237c-16.704,0-31.053,10.055-37.345,24.439
		c-2.815-0.866-5.806-1.335-8.905-1.335c-16.707,0-30.25,13.544-30.25,30.25c0,16.707,13.543,30.25,30.25,30.25h104
		c14.083,0,25.5-11.416,25.5-25.5S155.125,95.005,141.042,95.005z"/>
	<path fill="#8E8E8E" stroke="#000000" stroke-width="10" stroke-miterlimit="10" d="M167.264,57.067
		c-2.2,0-4.334,0.279-6.371,0.803c-3.313-5.911-8.91-10.365-15.598-12.17c-6.916-12.653-20.346-21.237-35.781-21.237
		c-16.704,0-31.053,10.055-37.345,24.439c-2.815-0.866-5.806-1.335-8.905-1.335c-16.707,0-30.25,12.56-30.25,29.267
		c0,1.848-1.217,6.604,0.506,7.971c0.126,0.1,0.336,0.402,0.606,0.843c0.96-0.092,1.932-0.143,2.917-0.143
		c3.1,0,6.09,0.469,8.905,1.335c6.292-14.384,20.641-24.439,37.345-24.439c15.436,0,28.865,8.584,35.781,21.237
		c6.688,1.805,12.285,6.259,15.598,12.17c2.037-0.523,4.171-0.803,6.371-0.803c9.468,0,17.725,5.164,22.123,12.826
		c0.334-0.201,0.611-0.274,0.808-0.166c2.008,1.107,5.909-0.316,7.958-0.946c10.503-3.229,20.833-12.433,20.833-24.151
		C192.764,68.483,181.347,57.067,167.264,57.067z"/>
	<polygon fill="#FFFB46" stroke="#000000" stroke-width="10" stroke-miterlimit="10" points="77.113,155.36 77.113,187.159 
		116.002,137.548 88.576,137.428 99.667,116.167 68.24,116.167 57.332,155.36 	"/>
</g>
</svg>
