<?xml version="1.0" encoding="utf-8"?>
<!-- Generator: Adobe Illustrator 16.0.0, SVG Export Plug-In . SVG Version: 6.00 Build 0)  -->
<!DOCTYPE svg PUBLIC "-//W3C//DTD SVG 1.1//EN" "http://www.w3.org/Graphics/SVG/1.1/DTD/svg11.dtd">
<svg version="1.1" xmlns="http://www.w3.org/2000/svg" xmlns:xlink="http://www.w3.org/1999/xlink" x="0px" y="0px" width="200px"
	 height="200px" viewBox="0 0 200 200" enable-background="new 0 0 200 200" xml:space="preserve">
<g id="NavBarIcons" display="none">
	<g id="Cloud">
		<path display="inline" fill="#FFFFFF" stroke="#FFFFFF" stroke-miterlimit="10" d="M154.309,78.819
			c-2.039,0-4.021,0.207-5.97,0.521c-2.715-11.553-13.06-20.166-25.44-20.166c-4.258,0-8.267,1.039-11.819,2.844
			C102.95,51.211,90.06,44.192,75.496,44.192c-23.031,0-41.975,17.479-44.303,39.895C17.858,89.46,8.46,102.316,8.46,117.341
			c0,19.853,16.402,35.953,36.635,35.953c0.545,0,1.076-0.063,1.615-0.086v0.086h107.599c20.563,0,37.234-16.672,37.234-37.237
			C191.542,95.491,174.87,78.819,154.309,78.819z"/>
	</g>
	<g id="Map">
		<polyline display="inline" fill="#FFFFFF" points="73.57,141.9 21.471,169.688 21.471,75.903 73.57,49.697 73.57,141.9 
			73.57,49.697 		"/>
		<path display="inline" fill="#FFFFFF" d="M129.025,66.889"/>
		<path display="inline" fill="#FFFFFF" d="M129.025,159.1l52.094-25.714c0,0,0-93.783,0.006-93.783l-52.1,27.286v94.283V159.1"/>
		<path display="inline" fill="#FFFFFF" d="M129.025,161.172"/>
		<polygon display="inline" fill="#FFFFFF" points="126.952,158.79 75.463,141.857 75.463,49.697 126.952,66.889 		"/>
	</g>
	<g id="Theme">
		<path display="inline" fill="#FDFDFE" d="M100,40.25c-32.998,0-59.75,26.752-59.75,59.75c0,33,26.752,59.75,59.75,59.75
			c33,0,59.75-26.75,59.75-59.75C159.75,67.002,133,40.25,100,40.25z M100,153V47c29.27,0,53,23.729,53,53
			C153,129.27,129.27,153,100,153z"/>
	</g>
</g>
<g id="Sunny" display="none">
	<polygon display="inline" fill="none" stroke="#FF7F11" stroke-width="10" stroke-miterlimit="10" points="110.773,11.831 
		133.131,41.917 170.214,36.452 164.75,73.535 194.835,95.893 164.75,118.25 170.214,155.334 133.131,149.869 110.773,179.955 
		88.416,149.869 51.333,155.334 56.797,118.25 26.711,95.893 56.797,73.535 51.333,36.452 88.416,41.917 	"/>
	
		<circle display="inline" fill="none" stroke="#FF7F11" stroke-width="10" stroke-miterlimit="10" cx="112.671" cy="86.415" r="37.625"/>
</g>
<g id="Night" display="none">
	<path display="inline" fill="none" stroke="#FFFB46" stroke-width="10" stroke-miterlimit="10" d="M78.348,41.625
		C54.644,50.421,37.75,73.235,37.75,100c0,34.38,27.87,62.25,62.25,62.25c26.765,0,49.579-16.894,58.375-40.598
		C115.068,119.685,80.316,84.932,78.348,41.625z"/>
	<path display="inline" fill="none" stroke="#FFFB46" stroke-miterlimit="10" d="M154.185,74.262c0,6.633,5.367,12,12,12"/>
	<path display="inline" fill="none" stroke="#FFFB46" stroke-miterlimit="10" d="M154.185,98.262c0-6.633-5.367-12-12-12"/>
	<path display="inline" fill="none" stroke="#FFFB46" stroke-miterlimit="10" d="M142.185,86.262c6.633,0,12-5.367,12-12"/>
	<path display="inline" fill="none" stroke="#FFFB46" stroke-miterlimit="10" d="M166.185,86.262c-6.633,0-12,5.367-12,12"/>
	<path display="inline" fill="none" stroke="#FFFB46" stroke-miterlimit="10" d="M139.655,62.393c0,3.28,2.654,5.935,5.935,5.935"/>
	<path display="inline" fill="none" stroke="#FFFB46" stroke-miterlimit="10" d="M139.655,74.262c0-3.28-2.654-5.935-5.935-5.935"/>
	<path display="inline" fill="none" stroke="#FFFB46" stroke-miterlimit="10" d="M133.721,68.328c3.28,0,5.935-2.654,5.935-5.935"/>
	<path display="inline" fill="none" stroke="#FFFB46" stroke-miterlimit="10" d="M145.59,68.328c-3.28,0-5.935,2.654-5.935,5.935"/>
</g>
<g id="Cloud_x2B_Sun">
	<path fill="none" stroke="#FF7F11" stroke-width="10" stroke-miterlimit="10" d="M127.422,53.359
		c-10.053-0.002-18.604,8.075-19.111,18.083"/>
	<path fill="none" stroke="#FF7F11" stroke-width="10" stroke-miterlimit="10" d="M145.326,97.731
		c4.842-4.695,7.856-11.265,7.856-18.542c0-14.266-11.565-25.831-25.831-25.831"/>
	<polyline fill="none" stroke="#FF7F11" stroke-width="10" stroke-miterlimit="10" points="90.365,64.168 86.614,38.71 
		112.073,42.461 127.422,21.807 142.771,42.461 168.23,38.71 164.479,64.168 185.133,79.518 161.369,97.976 	"/>
	<path fill="none" stroke="#FF7F11" stroke-width="10" stroke-miterlimit="10" d="M86.614,120.325"/>
	<path fill="none" stroke="#000000" stroke-width="10" stroke-miterlimit="10" d="M150.796,97.669c-2.2,0-4.334,0.279-6.371,0.803
		c-3.313-5.911-8.91-10.365-15.598-12.17c-6.916-12.653-20.346-21.237-35.781-21.237c-16.704,0-31.053,10.055-37.345,24.439
		c-2.816-0.866-5.806-1.335-8.905-1.335c-16.707,0-30.25,13.544-30.25,30.25c0,16.708,13.543,30.25,30.25,30.25h104
		c14.083,0,25.5-11.416,25.5-25.5C176.296,109.086,164.879,97.669,150.796,97.669z"/>
	<path fill="none" stroke="#FF7F11" stroke-width="10" stroke-miterlimit="10" d="M104.704,66.762"/>
</g>
</svg>
