<?xml version="1.0" encoding="utf-8"?>
<!-- Generator: Adobe Illustrator 16.0.0, SVG Export Plug-In . SVG Version: 6.00 Build 0)  -->
<!DOCTYPE svg PUBLIC "-//W3C//DTD SVG 1.1//EN" "http://www.w3.org/Graphics/SVG/1.1/DTD/svg11.dtd">
<svg version="1.1" id="Layer_1" xmlns="http://www.w3.org/2000/svg" xmlns:xlink="http://www.w3.org/1999/xlink" x="0px" y="0px"
	 width="200px" height="200px" viewBox="0 0 200 200" enable-background="new 0 0 200 200" xml:space="preserve">
<g id="Cloud" display="none">
	<path display="inline" fill="#FFFFFF" stroke="#FFFFFF" stroke-miterlimit="10" d="M154.309,78.819
		c-2.039,0-4.021,0.207-5.97,0.521c-2.715-11.553-13.06-20.166-25.44-20.166c-4.258,0-8.267,1.039-11.819,2.844
		C102.95,51.211,90.06,44.192,75.496,44.192c-23.031,0-41.975,17.479-44.303,39.895C17.858,89.46,8.46,102.316,8.46,117.341
		c0,19.853,16.402,35.953,36.635,35.953c0.545,0,1.076-0.063,1.615-0.086v0.086h107.599c20.563,0,37.234-16.672,37.234-37.237
		C191.542,95.491,174.87,78.819,154.309,78.819z"/>
</g>
<g id="Map" display="none">
	<polyline display="inline" fill="#FFFFFF" points="73.57,141.9 21.471,169.688 21.471,75.903 73.57,49.697 73.57,141.9 
		73.57,49.697 	"/>
	<path display="inline" fill="#FFFFFF" d="M129.025,66.889"/>
	<path display="inline" fill="#FFFFFF" d="M129.025,159.1l52.094-25.714c0,0,0-93.783,0.006-93.783l-52.1,27.286v94.283V159.1"/>
	<path display="inline" fill="#FFFFFF" d="M129.025,161.172"/>
	<polygon display="inline" fill="#FFFFFF" points="126.952,158.79 75.463,141.857 75.463,49.697 126.952,66.889 	"/>
</g>
<g id="Theme" display="none">
	<path display="inline" fill="#FDFDFE" d="M100,40.25c-32.998,0-59.75,26.752-59.75,59.75c0,33,26.752,59.75,59.75,59.75
		c33,0,59.75-26.75,59.75-59.75C159.75,67.002,133,40.25,100,40.25z M100,153V47c29.27,0,53,23.729,53,53
		C153,129.27,129.27,153,100,153z"/>
</g>
<circle fill="none" stroke="#FF7F11" stroke-width="10" stroke-miterlimit="10" cx="100" cy="100" r="37.625"/>
<polygon fill="none" stroke="#FF7F11" stroke-width="10" stroke-miterlimit="10" points="100,15.938 122.357,46.023 159.44,40.559 
	153.977,77.642 184.062,100 153.977,122.357 159.44,159.44 122.357,153.977 100,184.062 77.642,153.977 40.559,159.44 
	46.023,122.357 15.938,100 46.023,77.642 40.559,40.559 77.642,46.023 "/>
</svg>
